<?xml version="1.0" standalone="no"?>
 <!DOCTYPE svg PUBLIC "-//W3C//DTD SVG 1.1//EN" 
 "http://www.w3.org/Graphics/SVG/1.1/DTD/svg11.dtd"> 
<svg xmlns="http://www.w3.org/2000/svg" version="1.1" 
    width="41.9989cm" height="29.7002cm" viewBox="0 0 165350 116930 ">
<title>SVG Picture created as uv-box-B_Cu.svg date 2014/12/02 00:06:26 </title>
  <desc>Picture generated by PCBNEW </desc>
<g style="fill:#000000; fill-opacity:1;stroke:#000000; stroke-opacity:1;
stroke-linecap:round; stroke-linejoin:round; "
 transform="translate(0 0) scale(1 1)">
</g>
<g style="fill:#000000; fill-opacity:0.0; 
stroke:#000000; stroke-width:39.3701; stroke-opacity:1; 
stroke-linecap:round; stroke-linejoin:round;">
</g>
<g style="fill:#000000; fill-opacity:0.0; 
stroke:#000000; stroke-width:59.0551; stroke-opacity:1; 
stroke-linecap:round; stroke-linejoin:round;">
<rect x="118106" y="99607.2" width="42519.7" height="12598.4" rx="0" />
</g>
<g style="fill:#000000; fill-opacity:0.0; 
stroke:#000000; stroke-width:39.3701; stroke-opacity:1; 
stroke-linecap:round; stroke-linejoin:round;">
</g>
<g style="fill:#000000; fill-opacity:0.0; 
stroke:#000000; stroke-width:59.0551; stroke-opacity:1; 
stroke-linecap:round; stroke-linejoin:round;">
<rect x="3937.01" y="3937.01" width="157476" height="109056" rx="0" />
</g>
<g style="fill:#000000; fill-opacity:0.0; 
stroke:#000000; stroke-width:39.3701; stroke-opacity:1; 
stroke-linecap:round; stroke-linejoin:round;">
</g>
<g style="fill:#000000; fill-opacity:0.0; 
stroke:#000000; stroke-width:59.0551; stroke-opacity:1; 
stroke-linecap:round; stroke-linejoin:round;">
<rect x="4724.41" y="4724.41" width="155901" height="107481" rx="0" />
</g>
<g style="fill:#000000; fill-opacity:0.0; 
stroke:#000000; stroke-width:39.3701; stroke-opacity:1; 
stroke-linecap:round; stroke-linejoin:round;">
</g>
<g style="fill:#000000; fill-opacity:0.0; 
stroke:#000000; stroke-width:59.0551; stroke-opacity:1; 
stroke-linecap:round; stroke-linejoin:round;">
<path d="M23622 4724
L23622 3937
" />
</g>
<g style="fill:#000000; fill-opacity:0.0; 
stroke:#000000; stroke-width:39.3701; stroke-opacity:1; 
stroke-linecap:round; stroke-linejoin:round;">
</g>
<g style="fill:#000000; fill-opacity:0.0; 
stroke:#000000; stroke-width:59.0551; stroke-opacity:1; 
stroke-linecap:round; stroke-linejoin:round;">
<path d="M43307 4724
L43307 3937
" />
</g>
<g style="fill:#000000; fill-opacity:0.0; 
stroke:#000000; stroke-width:39.3701; stroke-opacity:1; 
stroke-linecap:round; stroke-linejoin:round;">
</g>
<g style="fill:#000000; fill-opacity:0.0; 
stroke:#000000; stroke-width:59.0551; stroke-opacity:1; 
stroke-linecap:round; stroke-linejoin:round;">
<path d="M62992 4724
L62992 3937
" />
</g>
<g style="fill:#000000; fill-opacity:0.0; 
stroke:#000000; stroke-width:39.3701; stroke-opacity:1; 
stroke-linecap:round; stroke-linejoin:round;">
</g>
<g style="fill:#000000; fill-opacity:0.0; 
stroke:#000000; stroke-width:59.0551; stroke-opacity:1; 
stroke-linecap:round; stroke-linejoin:round;">
<path d="M82677 4724
L82677 3937
" />
</g>
<g style="fill:#000000; fill-opacity:0.0; 
stroke:#000000; stroke-width:39.3701; stroke-opacity:1; 
stroke-linecap:round; stroke-linejoin:round;">
</g>
<g style="fill:#000000; fill-opacity:0.0; 
stroke:#000000; stroke-width:59.0551; stroke-opacity:1; 
stroke-linecap:round; stroke-linejoin:round;">
<path d="M102362 4724
L102362 3937
" />
</g>
<g style="fill:#000000; fill-opacity:0.0; 
stroke:#000000; stroke-width:39.3701; stroke-opacity:1; 
stroke-linecap:round; stroke-linejoin:round;">
</g>
<g style="fill:#000000; fill-opacity:0.0; 
stroke:#000000; stroke-width:59.0551; stroke-opacity:1; 
stroke-linecap:round; stroke-linejoin:round;">
<path d="M122047 4724
L122047 3937
" />
</g>
<g style="fill:#000000; fill-opacity:0.0; 
stroke:#000000; stroke-width:39.3701; stroke-opacity:1; 
stroke-linecap:round; stroke-linejoin:round;">
</g>
<g style="fill:#000000; fill-opacity:0.0; 
stroke:#000000; stroke-width:59.0551; stroke-opacity:1; 
stroke-linecap:round; stroke-linejoin:round;">
<path d="M141732 4724
L141732 3937
" />
</g>
<g style="fill:#000000; fill-opacity:0.0; 
stroke:#000000; stroke-width:39.3701; stroke-opacity:1; 
stroke-linecap:round; stroke-linejoin:round;">
</g>
<g style="fill:#000000; fill-opacity:0.0; 
stroke:#000000; stroke-width:59.0551; stroke-opacity:1; 
stroke-linecap:round; stroke-linejoin:round;">
<path d="M14169 4562
L13877 4562
" />
<path d="M14023 4562
L14023 4050
L13974 4123
L13925 4172
L13877 4196
" />
</g>
<g style="fill:#000000; fill-opacity:0.0; 
stroke:#000000; stroke-width:39.3701; stroke-opacity:1; 
stroke-linecap:round; stroke-linejoin:round;">
</g>
<g style="fill:#000000; fill-opacity:0.0; 
stroke:#000000; stroke-width:59.0551; stroke-opacity:1; 
stroke-linecap:round; stroke-linejoin:round;">
<path d="M33562 4099
L33586 4074
L33635 4050
L33757 4050
L33805 4074
L33830 4099
L33854 4147
L33854 4196
L33830 4269
L33537 4562
L33854 4562
" />
</g>
<g style="fill:#000000; fill-opacity:0.0; 
stroke:#000000; stroke-width:39.3701; stroke-opacity:1; 
stroke-linecap:round; stroke-linejoin:round;">
</g>
<g style="fill:#000000; fill-opacity:0.0; 
stroke:#000000; stroke-width:59.0551; stroke-opacity:1; 
stroke-linecap:round; stroke-linejoin:round;">
<path d="M53222 4050
L53539 4050
L53368 4245
L53442 4245
L53490 4269
L53515 4294
L53539 4342
L53539 4464
L53515 4513
L53490 4537
L53442 4562
L53295 4562
L53247 4537
L53222 4513
" />
</g>
<g style="fill:#000000; fill-opacity:0.0; 
stroke:#000000; stroke-width:39.3701; stroke-opacity:1; 
stroke-linecap:round; stroke-linejoin:round;">
</g>
<g style="fill:#000000; fill-opacity:0.0; 
stroke:#000000; stroke-width:59.0551; stroke-opacity:1; 
stroke-linecap:round; stroke-linejoin:round;">
<path d="M73175 4221
L73175 4562
" />
<path d="M73053 4026
L72932 4391
L73248 4391
" />
</g>
<g style="fill:#000000; fill-opacity:0.0; 
stroke:#000000; stroke-width:39.3701; stroke-opacity:1; 
stroke-linecap:round; stroke-linejoin:round;">
</g>
<g style="fill:#000000; fill-opacity:0.0; 
stroke:#000000; stroke-width:59.0551; stroke-opacity:1; 
stroke-linecap:round; stroke-linejoin:round;">
<path d="M92885 4050
L92641 4050
L92617 4294
L92641 4269
L92690 4245
L92812 4245
L92860 4269
L92885 4294
L92909 4342
L92909 4464
L92885 4513
L92860 4537
L92812 4562
L92690 4562
L92641 4537
L92617 4513
" />
</g>
<g style="fill:#000000; fill-opacity:0.0; 
stroke:#000000; stroke-width:39.3701; stroke-opacity:1; 
stroke-linecap:round; stroke-linejoin:round;">
</g>
<g style="fill:#000000; fill-opacity:0.0; 
stroke:#000000; stroke-width:59.0551; stroke-opacity:1; 
stroke-linecap:round; stroke-linejoin:round;">
<path d="M112545 4050
L112448 4050
L112399 4074
L112375 4099
L112326 4172
L112302 4269
L112302 4464
L112326 4513
L112350 4537
L112399 4562
L112497 4562
L112545 4537
L112570 4513
L112594 4464
L112594 4342
L112570 4294
L112545 4269
L112497 4245
L112399 4245
L112350 4269
L112326 4294
L112302 4342
" />
</g>
<g style="fill:#000000; fill-opacity:0.0; 
stroke:#000000; stroke-width:39.3701; stroke-opacity:1; 
stroke-linecap:round; stroke-linejoin:round;">
</g>
<g style="fill:#000000; fill-opacity:0.0; 
stroke:#000000; stroke-width:59.0551; stroke-opacity:1; 
stroke-linecap:round; stroke-linejoin:round;">
<path d="M131962 4050
L132304 4050
L132084 4562
" />
</g>
<g style="fill:#000000; fill-opacity:0.0; 
stroke:#000000; stroke-width:39.3701; stroke-opacity:1; 
stroke-linecap:round; stroke-linejoin:round;">
</g>
<g style="fill:#000000; fill-opacity:0.0; 
stroke:#000000; stroke-width:59.0551; stroke-opacity:1; 
stroke-linecap:round; stroke-linejoin:round;">
<path d="M151769 4269
L151721 4245
L151696 4221
L151672 4172
L151672 4147
L151696 4099
L151721 4074
L151769 4050
L151867 4050
L151916 4074
L151940 4099
L151964 4147
L151964 4172
L151940 4221
L151916 4245
L151867 4269
L151769 4269
L151721 4294
L151696 4318
L151672 4367
L151672 4464
L151696 4513
L151721 4537
L151769 4562
L151867 4562
L151916 4537
L151940 4513
L151964 4464
L151964 4367
L151940 4318
L151916 4294
L151867 4269
" />
</g>
<g style="fill:#000000; fill-opacity:0.0; 
stroke:#000000; stroke-width:39.3701; stroke-opacity:1; 
stroke-linecap:round; stroke-linejoin:round;">
</g>
<g style="fill:#000000; fill-opacity:0.0; 
stroke:#000000; stroke-width:59.0551; stroke-opacity:1; 
stroke-linecap:round; stroke-linejoin:round;">
<path d="M23622 112205
L23622 112992
" />
</g>
<g style="fill:#000000; fill-opacity:0.0; 
stroke:#000000; stroke-width:39.3701; stroke-opacity:1; 
stroke-linecap:round; stroke-linejoin:round;">
</g>
<g style="fill:#000000; fill-opacity:0.0; 
stroke:#000000; stroke-width:59.0551; stroke-opacity:1; 
stroke-linecap:round; stroke-linejoin:round;">
<path d="M43307 112205
L43307 112992
" />
</g>
<g style="fill:#000000; fill-opacity:0.0; 
stroke:#000000; stroke-width:39.3701; stroke-opacity:1; 
stroke-linecap:round; stroke-linejoin:round;">
</g>
<g style="fill:#000000; fill-opacity:0.0; 
stroke:#000000; stroke-width:59.0551; stroke-opacity:1; 
stroke-linecap:round; stroke-linejoin:round;">
<path d="M62992 112205
L62992 112992
" />
</g>
<g style="fill:#000000; fill-opacity:0.0; 
stroke:#000000; stroke-width:39.3701; stroke-opacity:1; 
stroke-linecap:round; stroke-linejoin:round;">
</g>
<g style="fill:#000000; fill-opacity:0.0; 
stroke:#000000; stroke-width:59.0551; stroke-opacity:1; 
stroke-linecap:round; stroke-linejoin:round;">
<path d="M82677 112205
L82677 112992
" />
</g>
<g style="fill:#000000; fill-opacity:0.0; 
stroke:#000000; stroke-width:39.3701; stroke-opacity:1; 
stroke-linecap:round; stroke-linejoin:round;">
</g>
<g style="fill:#000000; fill-opacity:0.0; 
stroke:#000000; stroke-width:59.0551; stroke-opacity:1; 
stroke-linecap:round; stroke-linejoin:round;">
<path d="M102362 112205
L102362 112992
" />
</g>
<g style="fill:#000000; fill-opacity:0.0; 
stroke:#000000; stroke-width:39.3701; stroke-opacity:1; 
stroke-linecap:round; stroke-linejoin:round;">
</g>
<g style="fill:#000000; fill-opacity:0.0; 
stroke:#000000; stroke-width:59.0551; stroke-opacity:1; 
stroke-linecap:round; stroke-linejoin:round;">
<path d="M122047 112205
L122047 112992
" />
</g>
<g style="fill:#000000; fill-opacity:0.0; 
stroke:#000000; stroke-width:39.3701; stroke-opacity:1; 
stroke-linecap:round; stroke-linejoin:round;">
</g>
<g style="fill:#000000; fill-opacity:0.0; 
stroke:#000000; stroke-width:59.0551; stroke-opacity:1; 
stroke-linecap:round; stroke-linejoin:round;">
<path d="M141732 112205
L141732 112992
" />
</g>
<g style="fill:#000000; fill-opacity:0.0; 
stroke:#000000; stroke-width:39.3701; stroke-opacity:1; 
stroke-linecap:round; stroke-linejoin:round;">
</g>
<g style="fill:#000000; fill-opacity:0.0; 
stroke:#000000; stroke-width:59.0551; stroke-opacity:1; 
stroke-linecap:round; stroke-linejoin:round;">
<path d="M14169 112830
L13877 112830
" />
<path d="M14023 112830
L14023 112319
L13974 112392
L13925 112440
L13877 112465
" />
</g>
<g style="fill:#000000; fill-opacity:0.0; 
stroke:#000000; stroke-width:39.3701; stroke-opacity:1; 
stroke-linecap:round; stroke-linejoin:round;">
</g>
<g style="fill:#000000; fill-opacity:0.0; 
stroke:#000000; stroke-width:59.0551; stroke-opacity:1; 
stroke-linecap:round; stroke-linejoin:round;">
<path d="M33562 112367
L33586 112343
L33635 112319
L33757 112319
L33805 112343
L33830 112367
L33854 112416
L33854 112465
L33830 112538
L33537 112830
L33854 112830
" />
</g>
<g style="fill:#000000; fill-opacity:0.0; 
stroke:#000000; stroke-width:39.3701; stroke-opacity:1; 
stroke-linecap:round; stroke-linejoin:round;">
</g>
<g style="fill:#000000; fill-opacity:0.0; 
stroke:#000000; stroke-width:59.0551; stroke-opacity:1; 
stroke-linecap:round; stroke-linejoin:round;">
<path d="M53222 112319
L53539 112319
L53368 112513
L53442 112513
L53490 112538
L53515 112562
L53539 112611
L53539 112733
L53515 112782
L53490 112806
L53442 112830
L53295 112830
L53247 112806
L53222 112782
" />
</g>
<g style="fill:#000000; fill-opacity:0.0; 
stroke:#000000; stroke-width:39.3701; stroke-opacity:1; 
stroke-linecap:round; stroke-linejoin:round;">
</g>
<g style="fill:#000000; fill-opacity:0.0; 
stroke:#000000; stroke-width:59.0551; stroke-opacity:1; 
stroke-linecap:round; stroke-linejoin:round;">
<path d="M73175 112489
L73175 112830
" />
<path d="M73053 112294
L72932 112660
L73248 112660
" />
</g>
<g style="fill:#000000; fill-opacity:0.0; 
stroke:#000000; stroke-width:39.3701; stroke-opacity:1; 
stroke-linecap:round; stroke-linejoin:round;">
</g>
<g style="fill:#000000; fill-opacity:0.0; 
stroke:#000000; stroke-width:59.0551; stroke-opacity:1; 
stroke-linecap:round; stroke-linejoin:round;">
<path d="M92885 112319
L92641 112319
L92617 112562
L92641 112538
L92690 112513
L92812 112513
L92860 112538
L92885 112562
L92909 112611
L92909 112733
L92885 112782
L92860 112806
L92812 112830
L92690 112830
L92641 112806
L92617 112782
" />
</g>
<g style="fill:#000000; fill-opacity:0.0; 
stroke:#000000; stroke-width:39.3701; stroke-opacity:1; 
stroke-linecap:round; stroke-linejoin:round;">
</g>
<g style="fill:#000000; fill-opacity:0.0; 
stroke:#000000; stroke-width:59.0551; stroke-opacity:1; 
stroke-linecap:round; stroke-linejoin:round;">
<path d="M112545 112319
L112448 112319
L112399 112343
L112375 112367
L112326 112440
L112302 112538
L112302 112733
L112326 112782
L112350 112806
L112399 112830
L112497 112830
L112545 112806
L112570 112782
L112594 112733
L112594 112611
L112570 112562
L112545 112538
L112497 112513
L112399 112513
L112350 112538
L112326 112562
L112302 112611
" />
</g>
<g style="fill:#000000; fill-opacity:0.0; 
stroke:#000000; stroke-width:39.3701; stroke-opacity:1; 
stroke-linecap:round; stroke-linejoin:round;">
</g>
<g style="fill:#000000; fill-opacity:0.0; 
stroke:#000000; stroke-width:59.0551; stroke-opacity:1; 
stroke-linecap:round; stroke-linejoin:round;">
<path d="M131962 112319
L132304 112319
L132084 112830
" />
</g>
<g style="fill:#000000; fill-opacity:0.0; 
stroke:#000000; stroke-width:39.3701; stroke-opacity:1; 
stroke-linecap:round; stroke-linejoin:round;">
</g>
<g style="fill:#000000; fill-opacity:0.0; 
stroke:#000000; stroke-width:59.0551; stroke-opacity:1; 
stroke-linecap:round; stroke-linejoin:round;">
<path d="M151769 112538
L151721 112513
L151696 112489
L151672 112440
L151672 112416
L151696 112367
L151721 112343
L151769 112319
L151867 112319
L151916 112343
L151940 112367
L151964 112416
L151964 112440
L151940 112489
L151916 112513
L151867 112538
L151769 112538
L151721 112562
L151696 112587
L151672 112635
L151672 112733
L151696 112782
L151721 112806
L151769 112830
L151867 112830
L151916 112806
L151940 112782
L151964 112733
L151964 112635
L151940 112587
L151916 112562
L151867 112538
" />
</g>
<g style="fill:#000000; fill-opacity:0.0; 
stroke:#000000; stroke-width:39.3701; stroke-opacity:1; 
stroke-linecap:round; stroke-linejoin:round;">
</g>
<g style="fill:#000000; fill-opacity:0.0; 
stroke:#000000; stroke-width:59.0551; stroke-opacity:1; 
stroke-linecap:round; stroke-linejoin:round;">
<path d="M3937 23622
L4724 23622
" />
</g>
<g style="fill:#000000; fill-opacity:0.0; 
stroke:#000000; stroke-width:39.3701; stroke-opacity:1; 
stroke-linecap:round; stroke-linejoin:round;">
</g>
<g style="fill:#000000; fill-opacity:0.0; 
stroke:#000000; stroke-width:59.0551; stroke-opacity:1; 
stroke-linecap:round; stroke-linejoin:round;">
<path d="M3937 43307
L4724 43307
" />
</g>
<g style="fill:#000000; fill-opacity:0.0; 
stroke:#000000; stroke-width:39.3701; stroke-opacity:1; 
stroke-linecap:round; stroke-linejoin:round;">
</g>
<g style="fill:#000000; fill-opacity:0.0; 
stroke:#000000; stroke-width:59.0551; stroke-opacity:1; 
stroke-linecap:round; stroke-linejoin:round;">
<path d="M3937 62992
L4724 62992
" />
</g>
<g style="fill:#000000; fill-opacity:0.0; 
stroke:#000000; stroke-width:39.3701; stroke-opacity:1; 
stroke-linecap:round; stroke-linejoin:round;">
</g>
<g style="fill:#000000; fill-opacity:0.0; 
stroke:#000000; stroke-width:59.0551; stroke-opacity:1; 
stroke-linecap:round; stroke-linejoin:round;">
<path d="M3937 82677
L4724 82677
" />
</g>
<g style="fill:#000000; fill-opacity:0.0; 
stroke:#000000; stroke-width:39.3701; stroke-opacity:1; 
stroke-linecap:round; stroke-linejoin:round;">
</g>
<g style="fill:#000000; fill-opacity:0.0; 
stroke:#000000; stroke-width:59.0551; stroke-opacity:1; 
stroke-linecap:round; stroke-linejoin:round;">
<path d="M3937 102362
L4724 102362
" />
</g>
<g style="fill:#000000; fill-opacity:0.0; 
stroke:#000000; stroke-width:39.3701; stroke-opacity:1; 
stroke-linecap:round; stroke-linejoin:round;">
</g>
<g style="fill:#000000; fill-opacity:0.0; 
stroke:#000000; stroke-width:59.0551; stroke-opacity:1; 
stroke-linecap:round; stroke-linejoin:round;">
<path d="M4208 13864
L4452 13864
" />
<path d="M4160 14011
L4330 13499
L4501 14011
" />
</g>
<g style="fill:#000000; fill-opacity:0.0; 
stroke:#000000; stroke-width:39.3701; stroke-opacity:1; 
stroke-linecap:round; stroke-linejoin:round;">
</g>
<g style="fill:#000000; fill-opacity:0.0; 
stroke:#000000; stroke-width:59.0551; stroke-opacity:1; 
stroke-linecap:round; stroke-linejoin:round;">
<path d="M4367 33428
L4440 33452
L4464 33476
L4489 33525
L4489 33598
L4464 33647
L4440 33671
L4391 33696
L4196 33696
L4196 33184
L4367 33184
L4416 33208
L4440 33233
L4464 33281
L4464 33330
L4440 33379
L4416 33403
L4367 33428
L4196 33428
" />
</g>
<g style="fill:#000000; fill-opacity:0.0; 
stroke:#000000; stroke-width:39.3701; stroke-opacity:1; 
stroke-linecap:round; stroke-linejoin:round;">
</g>
<g style="fill:#000000; fill-opacity:0.0; 
stroke:#000000; stroke-width:59.0551; stroke-opacity:1; 
stroke-linecap:round; stroke-linejoin:round;">
<path d="M4489 53332
L4464 53356
L4391 53381
L4342 53381
L4269 53356
L4221 53308
L4196 53259
L4172 53161
L4172 53088
L4196 52991
L4221 52942
L4269 52893
L4342 52869
L4391 52869
L4464 52893
L4489 52918
" />
</g>
<g style="fill:#000000; fill-opacity:0.0; 
stroke:#000000; stroke-width:39.3701; stroke-opacity:1; 
stroke-linecap:round; stroke-linejoin:round;">
</g>
<g style="fill:#000000; fill-opacity:0.0; 
stroke:#000000; stroke-width:59.0551; stroke-opacity:1; 
stroke-linecap:round; stroke-linejoin:round;">
<path d="M4196 73066
L4196 72554
L4318 72554
L4391 72578
L4440 72627
L4464 72676
L4489 72773
L4489 72846
L4464 72944
L4440 72993
L4391 73041
L4318 73066
L4196 73066
" />
</g>
<g style="fill:#000000; fill-opacity:0.0; 
stroke:#000000; stroke-width:39.3701; stroke-opacity:1; 
stroke-linecap:round; stroke-linejoin:round;">
</g>
<g style="fill:#000000; fill-opacity:0.0; 
stroke:#000000; stroke-width:59.0551; stroke-opacity:1; 
stroke-linecap:round; stroke-linejoin:round;">
<path d="M4221 92483
L4391 92483
" />
<path d="M4464 92751
L4221 92751
L4221 92239
L4464 92239
" />
</g>
<g style="fill:#000000; fill-opacity:0.0; 
stroke:#000000; stroke-width:39.3701; stroke-opacity:1; 
stroke-linecap:round; stroke-linejoin:round;">
</g>
<g style="fill:#000000; fill-opacity:0.0; 
stroke:#000000; stroke-width:59.0551; stroke-opacity:1; 
stroke-linecap:round; stroke-linejoin:round;">
<path d="M4403 112168
L4233 112168
" />
<path d="M4233 112436
L4233 111924
L4476 111924
" />
</g>
<g style="fill:#000000; fill-opacity:0.0; 
stroke:#000000; stroke-width:39.3701; stroke-opacity:1; 
stroke-linecap:round; stroke-linejoin:round;">
</g>
<g style="fill:#000000; fill-opacity:0.0; 
stroke:#000000; stroke-width:59.0551; stroke-opacity:1; 
stroke-linecap:round; stroke-linejoin:round;">
<path d="M161412 23622
L160625 23622
" />
</g>
<g style="fill:#000000; fill-opacity:0.0; 
stroke:#000000; stroke-width:39.3701; stroke-opacity:1; 
stroke-linecap:round; stroke-linejoin:round;">
</g>
<g style="fill:#000000; fill-opacity:0.0; 
stroke:#000000; stroke-width:59.0551; stroke-opacity:1; 
stroke-linecap:round; stroke-linejoin:round;">
<path d="M161412 43307
L160625 43307
" />
</g>
<g style="fill:#000000; fill-opacity:0.0; 
stroke:#000000; stroke-width:39.3701; stroke-opacity:1; 
stroke-linecap:round; stroke-linejoin:round;">
</g>
<g style="fill:#000000; fill-opacity:0.0; 
stroke:#000000; stroke-width:59.0551; stroke-opacity:1; 
stroke-linecap:round; stroke-linejoin:round;">
<path d="M161412 62992
L160625 62992
" />
</g>
<g style="fill:#000000; fill-opacity:0.0; 
stroke:#000000; stroke-width:39.3701; stroke-opacity:1; 
stroke-linecap:round; stroke-linejoin:round;">
</g>
<g style="fill:#000000; fill-opacity:0.0; 
stroke:#000000; stroke-width:59.0551; stroke-opacity:1; 
stroke-linecap:round; stroke-linejoin:round;">
<path d="M161412 82677
L160625 82677
" />
</g>
<g style="fill:#000000; fill-opacity:0.0; 
stroke:#000000; stroke-width:39.3701; stroke-opacity:1; 
stroke-linecap:round; stroke-linejoin:round;">
</g>
<g style="fill:#000000; fill-opacity:0.0; 
stroke:#000000; stroke-width:59.0551; stroke-opacity:1; 
stroke-linecap:round; stroke-linejoin:round;">
<path d="M161412 102362
L160625 102362
" />
</g>
<g style="fill:#000000; fill-opacity:0.0; 
stroke:#000000; stroke-width:39.3701; stroke-opacity:1; 
stroke-linecap:round; stroke-linejoin:round;">
</g>
<g style="fill:#000000; fill-opacity:0.0; 
stroke:#000000; stroke-width:59.0551; stroke-opacity:1; 
stroke-linecap:round; stroke-linejoin:round;">
<path d="M160897 13864
L161141 13864
" />
<path d="M160848 14011
L161019 13499
L161189 14011
" />
</g>
<g style="fill:#000000; fill-opacity:0.0; 
stroke:#000000; stroke-width:39.3701; stroke-opacity:1; 
stroke-linecap:round; stroke-linejoin:round;">
</g>
<g style="fill:#000000; fill-opacity:0.0; 
stroke:#000000; stroke-width:59.0551; stroke-opacity:1; 
stroke-linecap:round; stroke-linejoin:round;">
<path d="M161055 33428
L161128 33452
L161153 33476
L161177 33525
L161177 33598
L161153 33647
L161128 33671
L161080 33696
L160885 33696
L160885 33184
L161055 33184
L161104 33208
L161128 33233
L161153 33281
L161153 33330
L161128 33379
L161104 33403
L161055 33428
L160885 33428
" />
</g>
<g style="fill:#000000; fill-opacity:0.0; 
stroke:#000000; stroke-width:39.3701; stroke-opacity:1; 
stroke-linecap:round; stroke-linejoin:round;">
</g>
<g style="fill:#000000; fill-opacity:0.0; 
stroke:#000000; stroke-width:59.0551; stroke-opacity:1; 
stroke-linecap:round; stroke-linejoin:round;">
<path d="M161177 53332
L161153 53356
L161080 53381
L161031 53381
L160958 53356
L160909 53308
L160885 53259
L160860 53161
L160860 53088
L160885 52991
L160909 52942
L160958 52893
L161031 52869
L161080 52869
L161153 52893
L161177 52918
" />
</g>
<g style="fill:#000000; fill-opacity:0.0; 
stroke:#000000; stroke-width:39.3701; stroke-opacity:1; 
stroke-linecap:round; stroke-linejoin:round;">
</g>
<g style="fill:#000000; fill-opacity:0.0; 
stroke:#000000; stroke-width:59.0551; stroke-opacity:1; 
stroke-linecap:round; stroke-linejoin:round;">
<path d="M160885 73066
L160885 72554
L161007 72554
L161080 72578
L161128 72627
L161153 72676
L161177 72773
L161177 72846
L161153 72944
L161128 72993
L161080 73041
L161007 73066
L160885 73066
" />
</g>
<g style="fill:#000000; fill-opacity:0.0; 
stroke:#000000; stroke-width:39.3701; stroke-opacity:1; 
stroke-linecap:round; stroke-linejoin:round;">
</g>
<g style="fill:#000000; fill-opacity:0.0; 
stroke:#000000; stroke-width:59.0551; stroke-opacity:1; 
stroke-linecap:round; stroke-linejoin:round;">
<path d="M160909 92483
L161080 92483
" />
<path d="M161153 92751
L160909 92751
L160909 92239
L161153 92239
" />
</g>
<g style="fill:#000000; fill-opacity:0.0; 
stroke:#000000; stroke-width:39.3701; stroke-opacity:1; 
stroke-linecap:round; stroke-linejoin:round;">
</g>
<g style="fill:#000000; fill-opacity:0.0; 
stroke:#000000; stroke-width:59.0551; stroke-opacity:1; 
stroke-linecap:round; stroke-linejoin:round;">
<path d="M161092 112168
L160921 112168
" />
<path d="M160921 112436
L160921 111924
L161165 111924
" />
</g>
<g style="fill:#000000; fill-opacity:0.0; 
stroke:#000000; stroke-width:39.3701; stroke-opacity:1; 
stroke-linecap:round; stroke-linejoin:round;">
</g>
<g style="fill:#000000; fill-opacity:0.0; 
stroke:#000000; stroke-width:59.0551; stroke-opacity:1; 
stroke-linecap:round; stroke-linejoin:round;">
<path d="M127301 110543
L127301 109953
L127442 109953
L127526 109981
L127582 110037
L127610 110093
L127639 110206
L127639 110290
L127610 110403
L127582 110459
L127526 110515
L127442 110543
L127301 110543
" />
<path d="M128145 110543
L128145 110234
L128117 110178
L128060 110149
L127948 110149
L127892 110178
" />
<path d="M128145 110515
L128089 110543
L127948 110543
L127892 110515
L127864 110459
L127864 110403
L127892 110346
L127948 110318
L128089 110318
L128145 110290
" />
<path d="M128342 110149
L128567 110149
" />
<path d="M128426 109953
L128426 110459
L128454 110515
L128510 110543
L128567 110543
" />
<path d="M128988 110515
L128932 110543
L128820 110543
L128763 110515
L128735 110459
L128735 110234
L128763 110178
L128820 110149
L128932 110149
L128988 110178
L129017 110234
L129017 110290
L128735 110346
" />
<path d="M129270 110487
L129298 110515
L129270 110543
L129242 110515
L129270 110487
L129270 110543
" />
<path d="M129270 110178
L129298 110206
L129270 110234
L129242 110206
L129270 110178
L129270 110234
" />
</g>
<g style="fill:#000000; fill-opacity:0.0; 
stroke:#000000; stroke-width:39.3701; stroke-opacity:1; 
stroke-linecap:round; stroke-linejoin:round;">
</g>
<g style="fill:#000000; fill-opacity:0.0; 
stroke:#000000; stroke-width:59.0551; stroke-opacity:1; 
stroke-linecap:round; stroke-linejoin:round;">
<path d="M118105 110827
L160625 110827
" />
</g>
<g style="fill:#000000; fill-opacity:0.0; 
stroke:#000000; stroke-width:39.3701; stroke-opacity:1; 
stroke-linecap:round; stroke-linejoin:round;">
</g>
<g style="fill:#000000; fill-opacity:0.0; 
stroke:#000000; stroke-width:59.0551; stroke-opacity:1; 
stroke-linecap:round; stroke-linejoin:round;">
<path d="M118640 111645
L118640 111055
" />
<path d="M118977 111645
L118724 111308
" />
<path d="M118977 111055
L118640 111392
" />
<path d="M119230 111645
L119230 111252
" />
<path d="M119230 111055
L119202 111083
L119230 111111
L119258 111083
L119230 111055
L119230 111111
" />
<path d="M119849 111589
L119821 111617
L119736 111645
L119680 111645
L119596 111617
L119540 111561
L119511 111505
L119483 111392
L119483 111308
L119511 111196
L119540 111139
L119596 111083
L119680 111055
L119736 111055
L119821 111083
L119849 111111
" />
<path d="M120355 111645
L120355 111336
L120327 111280
L120271 111252
L120158 111252
L120102 111280
" />
<path d="M120355 111617
L120299 111645
L120158 111645
L120102 111617
L120074 111561
L120074 111505
L120102 111449
L120158 111421
L120299 111421
L120355 111392
" />
<path d="M120889 111645
L120889 111055
" />
<path d="M120889 111617
L120833 111645
L120721 111645
L120664 111617
L120636 111589
L120608 111533
L120608 111364
L120636 111308
L120664 111280
L120721 111252
L120833 111252
L120889 111280
" />
<path d="M121621 111336
L121817 111336
" />
<path d="M121902 111645
L121621 111645
L121621 111055
L121902 111055
" />
<path d="M122155 111589
L122183 111617
L122155 111645
L122127 111617
L122155 111589
L122155 111645
" />
<path d="M122436 111645
L122436 111055
L122577 111055
L122661 111083
L122717 111139
L122745 111196
L122774 111308
L122774 111392
L122745 111505
L122717 111561
L122661 111617
L122577 111645
L122436 111645
" />
<path d="M123027 111589
L123055 111617
L123027 111645
L122999 111617
L123027 111589
L123027 111645
" />
<path d="M123280 111477
L123561 111477
" />
<path d="M123224 111645
L123420 111055
L123617 111645
" />
<path d="M123814 111589
L123842 111617
L123814 111645
L123786 111617
L123814 111589
L123814 111645
" />
<path d="M124995 111645
L124995 111055
" />
<path d="M125051 111421
L125220 111645
" />
<path d="M125220 111252
L124995 111477
" />
<path d="M125473 111645
L125473 111252
" />
<path d="M125473 111055
L125445 111083
L125473 111111
L125501 111083
L125473 111055
L125473 111111
" />
<path d="M126008 111617
L125951 111645
L125839 111645
L125783 111617
L125754 111589
L125726 111533
L125726 111364
L125754 111308
L125783 111280
L125839 111252
L125951 111252
L126008 111280
" />
<path d="M126514 111645
L126514 111336
L126486 111280
L126429 111252
L126317 111252
L126261 111280
" />
<path d="M126514 111617
L126457 111645
L126317 111645
L126261 111617
L126233 111561
L126233 111505
L126261 111449
L126317 111421
L126457 111421
L126514 111392
" />
<path d="M127048 111645
L127048 111055
" />
<path d="M127048 111617
L126992 111645
L126879 111645
L126823 111617
L126795 111589
L126767 111533
L126767 111364
L126795 111308
L126823 111280
L126879 111252
L126992 111252
L127048 111280
" />
<path d="M127948 111870
L127920 111842
L127864 111758
L127835 111702
L127807 111617
L127779 111477
L127779 111364
L127807 111224
L127835 111139
L127864 111083
L127920 110999
L127948 110971
" />
<path d="M128145 111111
L128173 111083
L128229 111055
L128370 111055
L128426 111083
L128454 111111
L128482 111167
L128482 111224
L128454 111308
L128117 111645
L128482 111645
" />
<path d="M128848 111055
L128904 111055
L128960 111083
L128988 111111
L129017 111167
L129045 111280
L129045 111421
L129017 111533
L128988 111589
L128960 111617
L128904 111645
L128848 111645
L128792 111617
L128763 111589
L128735 111533
L128707 111421
L128707 111280
L128735 111167
L128763 111111
L128792 111083
L128848 111055
" />
<path d="M129607 111645
L129270 111645
" />
<path d="M129438 111645
L129438 111055
L129382 111139
L129326 111196
L129270 111224
" />
<path d="M130113 111252
L130113 111645
" />
<path d="M129973 111027
L129832 111449
L130198 111449
" />
<path d="M130423 111421
L130873 111421
" />
<path d="M131463 111645
L131126 111645
" />
<path d="M131294 111645
L131294 111055
L131238 111139
L131182 111196
L131126 111224
" />
<path d="M131829 111055
L131885 111055
L131941 111083
L131969 111111
L131997 111167
L132026 111280
L132026 111421
L131997 111533
L131969 111589
L131941 111617
L131885 111645
L131829 111645
L131772 111617
L131744 111589
L131716 111533
L131688 111421
L131688 111280
L131716 111167
L131744 111111
L131772 111083
L131829 111055
" />
<path d="M132279 111421
L132729 111421
" />
<path d="M132982 111111
L133010 111083
L133066 111055
L133207 111055
L133263 111083
L133291 111111
L133319 111167
L133319 111224
L133291 111308
L132954 111645
L133319 111645
" />
<path d="M133516 111055
L133910 111055
L133657 111645
" />
<path d="M134781 111336
L134866 111364
L134894 111392
L134922 111449
L134922 111533
L134894 111589
L134866 111617
L134810 111645
L134585 111645
L134585 111055
L134781 111055
L134838 111083
L134866 111111
L134894 111167
L134894 111224
L134866 111280
L134838 111308
L134781 111336
L134585 111336
" />
<path d="M135119 111055
L135513 111055
L135119 111645
L135513 111645
" />
<path d="M136075 111645
L135878 111364
" />
<path d="M135738 111645
L135738 111055
L135963 111055
L136019 111083
L136047 111111
L136075 111167
L136075 111252
L136047 111308
L136019 111336
L135963 111364
L135738 111364
" />
<path d="M137059 111055
L136778 111055
L136750 111336
L136778 111308
L136834 111280
L136975 111280
L137031 111308
L137059 111336
L137087 111392
L137087 111533
L137059 111589
L137031 111617
L136975 111645
L136834 111645
L136778 111617
L136750 111589
" />
<path d="M137312 111111
L137341 111083
L137397 111055
L137537 111055
L137594 111083
L137622 111111
L137650 111167
L137650 111224
L137622 111308
L137284 111645
L137650 111645
" />
<path d="M137875 111111
L137903 111083
L137959 111055
L138100 111055
L138156 111083
L138184 111111
L138212 111167
L138212 111224
L138184 111308
L137847 111645
L138212 111645
" />
<path d="M138550 111308
L138493 111280
L138465 111252
L138437 111196
L138437 111167
L138465 111111
L138493 111083
L138550 111055
L138662 111055
L138718 111083
L138747 111111
L138775 111167
L138775 111196
L138747 111252
L138718 111280
L138662 111308
L138550 111308
L138493 111336
L138465 111364
L138437 111421
L138437 111533
L138465 111589
L138493 111617
L138550 111645
L138662 111645
L138718 111617
L138747 111589
L138775 111533
L138775 111421
L138747 111364
L138718 111336
L138662 111308
" />
<path d="M138972 111870
L139000 111842
L139056 111758
L139084 111702
L139112 111617
L139140 111477
L139140 111364
L139112 111224
L139084 111139
L139056 111083
L139000 110999
L138972 110971
" />
<path d="M139421 111421
L139871 111421
" />
<path d="M140153 111252
L140153 111842
" />
<path d="M140153 111280
L140209 111252
L140321 111252
L140378 111280
L140406 111308
L140434 111364
L140434 111533
L140406 111589
L140378 111617
L140321 111645
L140209 111645
L140153 111617
" />
<path d="M140687 111645
L140687 111252
" />
<path d="M140687 111364
L140715 111308
L140743 111280
L140799 111252
L140856 111252
" />
<path d="M141137 111645
L141081 111617
L141053 111589
L141024 111533
L141024 111364
L141053 111308
L141081 111280
L141137 111252
L141221 111252
L141278 111280
L141306 111308
L141334 111364
L141334 111533
L141306 111589
L141278 111617
L141221 111645
L141137 111645
" />
<path d="M141840 111645
L141840 111055
" />
<path d="M141840 111617
L141784 111645
L141671 111645
L141615 111617
L141587 111589
L141559 111533
L141559 111364
L141587 111308
L141615 111280
L141671 111252
L141784 111252
L141840 111280
" />
<path d="M142374 111252
L142374 111645
" />
<path d="M142121 111252
L142121 111561
L142149 111617
L142206 111645
L142290 111645
L142346 111617
L142374 111589
" />
<path d="M142909 111617
L142852 111645
L142740 111645
L142684 111617
L142655 111589
L142627 111533
L142627 111364
L142655 111308
L142684 111280
L142740 111252
L142852 111252
L142909 111280
" />
<path d="M143077 111252
L143302 111252
" />
<path d="M143162 111055
L143162 111561
L143190 111617
L143246 111645
L143302 111645
" />
</g>
<g style="fill:#000000; fill-opacity:0.0; 
stroke:#000000; stroke-width:39.3701; stroke-opacity:1; 
stroke-linecap:round; stroke-linejoin:round;">
</g>
<g style="fill:#000000; fill-opacity:0.0; 
stroke:#000000; stroke-width:59.0551; stroke-opacity:1; 
stroke-linecap:round; stroke-linejoin:round;">
<path d="M118105 109646
L160625 109646
" />
</g>
<g style="fill:#000000; fill-opacity:0.0; 
stroke:#000000; stroke-width:39.3701; stroke-opacity:1; 
stroke-linecap:round; stroke-linejoin:round;">
</g>
<g style="fill:#000000; fill-opacity:0.0; 
stroke:#000000; stroke-width:118.11; stroke-opacity:1; 
stroke-linecap:round; stroke-linejoin:round;">
<path d="M152442 110543
L152245 110262
" />
<path d="M152104 110543
L152104 109953
L152329 109953
L152385 109981
L152414 110009
L152442 110065
L152442 110149
L152414 110206
L152385 110234
L152329 110262
L152104 110262
" />
<path d="M152920 110515
L152864 110543
L152751 110543
L152695 110515
L152667 110459
L152667 110234
L152695 110178
L152751 110149
L152864 110149
L152920 110178
L152948 110234
L152948 110290
L152667 110346
" />
<path d="M153145 110149
L153285 110543
L153426 110149
" />
<path d="M153651 110487
L153679 110515
L153651 110543
L153623 110515
L153651 110487
L153651 110543
" />
<path d="M153651 110178
L153679 110206
L153651 110234
L153623 110206
L153651 110178
L153651 110234
" />
</g>
<g style="fill:#000000; fill-opacity:0.0; 
stroke:#000000; stroke-width:39.3701; stroke-opacity:1; 
stroke-linecap:round; stroke-linejoin:round;">
</g>
<g style="fill:#000000; fill-opacity:0.0; 
stroke:#000000; stroke-width:59.0551; stroke-opacity:1; 
stroke-linecap:round; stroke-linejoin:round;">
<path d="M118612 110515
L118696 110543
L118837 110543
L118893 110515
L118921 110487
L118949 110431
L118949 110374
L118921 110318
L118893 110290
L118837 110262
L118724 110234
L118668 110206
L118640 110178
L118612 110121
L118612 110065
L118640 110009
L118668 109981
L118724 109953
L118865 109953
L118949 109981
" />
<path d="M119202 110543
L119202 110149
" />
<path d="M119202 109953
L119174 109981
L119202 110009
L119230 109981
L119202 109953
L119202 110009
" />
<path d="M119427 110149
L119736 110149
L119427 110543
L119736 110543
" />
<path d="M120186 110515
L120130 110543
L120018 110543
L119961 110515
L119933 110459
L119933 110234
L119961 110178
L120018 110149
L120130 110149
L120186 110178
L120215 110234
L120215 110290
L119933 110346
" />
<path d="M120468 110487
L120496 110515
L120468 110543
L120439 110515
L120468 110487
L120468 110543
" />
<path d="M120468 110178
L120496 110206
L120468 110234
L120439 110206
L120468 110178
L120468 110234
" />
<path d="M121171 110374
L121452 110374
" />
<path d="M121114 110543
L121311 109953
L121508 110543
" />
<path d="M121649 109953
L122014 109953
L121817 110178
L121902 110178
L121958 110206
L121986 110234
L122014 110290
L122014 110431
L121986 110487
L121958 110515
L121902 110543
L121733 110543
L121677 110515
L121649 110487
" />
</g>
<g style="fill:#000000; fill-opacity:0.0; 
stroke:#000000; stroke-width:39.3701; stroke-opacity:1; 
stroke-linecap:round; stroke-linejoin:round;">
</g>
<g style="fill:#000000; fill-opacity:0.0; 
stroke:#000000; stroke-width:59.0551; stroke-opacity:1; 
stroke-linecap:round; stroke-linejoin:round;">
<path d="M152104 111645
L152104 111055
" />
<path d="M152639 111645
L152639 111055
" />
<path d="M152639 111617
L152582 111645
L152470 111645
L152414 111617
L152385 111589
L152357 111533
L152357 111364
L152385 111308
L152414 111280
L152470 111252
L152582 111252
L152639 111280
" />
<path d="M152920 111589
L152948 111617
L152920 111645
L152892 111617
L152920 111589
L152920 111645
" />
<path d="M152920 111280
L152948 111308
L152920 111336
L152892 111308
L152920 111280
L152920 111336
" />
<path d="M153960 111645
L153623 111645
" />
<path d="M153792 111645
L153792 111055
L153735 111139
L153679 111196
L153623 111224
" />
<path d="M154635 111027
L154129 111786
" />
<path d="M155141 111645
L154804 111645
" />
<path d="M154973 111645
L154973 111055
L154916 111139
L154860 111196
L154804 111224
" />
</g>
<g style="fill:#000000; fill-opacity:0.0; 
stroke:#000000; stroke-width:39.3701; stroke-opacity:1; 
stroke-linecap:round; stroke-linejoin:round;">
</g>
<g style="fill:#000000; fill-opacity:0.0; 
stroke:#000000; stroke-width:59.0551; stroke-opacity:1; 
stroke-linecap:round; stroke-linejoin:round;">
<path d="M118105 108071
L160625 108071
" />
</g>
<g style="fill:#000000; fill-opacity:0.0; 
stroke:#000000; stroke-width:39.3701; stroke-opacity:1; 
stroke-linecap:round; stroke-linejoin:round;">
</g>
<g style="fill:#000000; fill-opacity:0.0; 
stroke:#000000; stroke-width:157.48; stroke-opacity:1; 
stroke-linecap:round; stroke-linejoin:round;">
<path d="M118677 108349
L119127 108349
" />
<path d="M118804 109136
L118902 108349
" />
<path d="M119291 109136
L119357 108611
" />
<path d="M119390 108349
L119347 108386
L119380 108424
L119422 108386
L119390 108349
L119380 108424
" />
<path d="M119619 108611
L119919 108611
" />
<path d="M119765 108349
L119680 109024
L119708 109099
L119779 109136
L119854 109136
" />
<path d="M120229 109136
L120158 109099
L120130 109024
L120215 108349
" />
<path d="M120833 109099
L120754 109136
L120604 109136
L120533 109099
L120505 109024
L120543 108724
L120589 108649
L120669 108611
L120819 108611
L120889 108649
L120918 108724
L120908 108799
L120524 108874
" />
<path d="M121213 109061
L121246 109099
L121203 109136
L121171 109099
L121213 109061
L121203 109136
" />
<path d="M121264 108649
L121297 108686
L121255 108724
L121222 108686
L121264 108649
L121255 108724
" />
</g>
<g style="fill:#000000; fill-opacity:0.0; 
stroke:#000000; stroke-width:39.3701; stroke-opacity:1; 
stroke-linecap:round; stroke-linejoin:round;">
</g>
<g style="fill:#000000; fill-opacity:0.0; 
stroke:#000000; stroke-width:59.0551; stroke-opacity:1; 
stroke-linecap:round; stroke-linejoin:round;">
<path d="M118837 107320
L118640 107320
" />
<path d="M118640 107630
L118640 107039
L118921 107039
" />
<path d="M119146 107630
L119146 107236
" />
<path d="M119146 107039
L119118 107067
L119146 107095
L119174 107067
L119146 107039
L119146 107095
" />
<path d="M119511 107630
L119455 107602
L119427 107545
L119427 107039
" />
<path d="M119961 107602
L119905 107630
L119793 107630
L119736 107602
L119708 107545
L119708 107320
L119736 107264
L119793 107236
L119905 107236
L119961 107264
L119990 107320
L119990 107377
L119708 107433
" />
<path d="M120243 107573
L120271 107602
L120243 107630
L120215 107602
L120243 107573
L120243 107630
" />
<path d="M120243 107264
L120271 107292
L120243 107320
L120215 107292
L120243 107264
L120243 107320
" />
<path d="M121227 107236
L121227 107630
" />
<path d="M120974 107236
L120974 107545
L121002 107602
L121058 107630
L121143 107630
L121199 107602
L121227 107573
" />
<path d="M121452 107236
L121592 107630
L121733 107236
" />
<path d="M121958 107405
L122408 107405
" />
<path d="M122689 107630
L122689 107039
" />
<path d="M122689 107264
L122745 107236
L122858 107236
L122914 107264
L122942 107292
L122970 107349
L122970 107517
L122942 107573
L122914 107602
L122858 107630
L122745 107630
L122689 107602
" />
<path d="M123308 107630
L123252 107602
L123224 107573
L123195 107517
L123195 107349
L123224 107292
L123252 107264
L123308 107236
L123392 107236
L123448 107264
L123477 107292
L123505 107349
L123505 107517
L123477 107573
L123448 107602
L123392 107630
L123308 107630
" />
<path d="M123702 107630
L124011 107236
" />
<path d="M123702 107236
L124011 107630
" />
<path d="M124236 107573
L124264 107602
L124236 107630
L124208 107602
L124236 107573
L124236 107630
" />
<path d="M124517 107630
L124517 107039
" />
<path d="M124573 107405
L124742 107630
" />
<path d="M124742 107236
L124517 107461
" />
<path d="M124995 107630
L124995 107236
" />
<path d="M124995 107039
L124967 107067
L124995 107095
L125023 107067
L124995 107039
L124995 107095
" />
<path d="M125529 107602
L125473 107630
L125361 107630
L125305 107602
L125276 107573
L125248 107517
L125248 107349
L125276 107292
L125305 107264
L125361 107236
L125473 107236
L125529 107264
" />
<path d="M126036 107630
L126036 107320
L126008 107264
L125951 107236
L125839 107236
L125783 107264
" />
<path d="M126036 107602
L125979 107630
L125839 107630
L125783 107602
L125754 107545
L125754 107489
L125783 107433
L125839 107405
L125979 107405
L126036 107377
" />
<path d="M126570 107630
L126570 107039
" />
<path d="M126570 107602
L126514 107630
L126401 107630
L126345 107602
L126317 107573
L126289 107517
L126289 107349
L126317 107292
L126345 107264
L126401 107236
L126514 107236
L126570 107264
" />
<path d="M126711 107686
L127161 107686
" />
<path d="M127301 107236
L127301 107827
" />
<path d="M127301 107264
L127357 107236
L127470 107236
L127526 107264
L127554 107292
L127582 107349
L127582 107517
L127554 107573
L127526 107602
L127470 107630
L127357 107630
L127301 107602
" />
<path d="M128089 107602
L128032 107630
L127920 107630
L127864 107602
L127835 107573
L127807 107517
L127807 107349
L127835 107292
L127864 107264
L127920 107236
L128032 107236
L128089 107264
" />
<path d="M128342 107630
L128342 107039
" />
<path d="M128342 107264
L128398 107236
L128510 107236
L128567 107264
L128595 107292
L128623 107349
L128623 107517
L128595 107573
L128567 107602
L128510 107630
L128398 107630
L128342 107602
" />
</g>
<g style="fill:#000000; fill-opacity:0.0; 
stroke:#000000; stroke-width:39.3701; stroke-opacity:1; 
stroke-linecap:round; stroke-linejoin:round;">
</g>
<g style="fill:#000000; fill-opacity:0.0; 
stroke:#000000; stroke-width:59.0551; stroke-opacity:1; 
stroke-linecap:round; stroke-linejoin:round;">
<path d="M118105 105709
L160625 105709
" />
</g>
<g style="fill:#000000; fill-opacity:0.0; 
stroke:#000000; stroke-width:39.3701; stroke-opacity:1; 
stroke-linecap:round; stroke-linejoin:round;">
</g>
<g style="fill:#000000; fill-opacity:0.0; 
stroke:#000000; stroke-width:59.0551; stroke-opacity:1; 
stroke-linecap:round; stroke-linejoin:round;">
<path d="M118612 106539
L118696 106567
L118837 106567
L118893 106539
L118921 106510
L118949 106454
L118949 106398
L118921 106342
L118893 106314
L118837 106286
L118724 106257
L118668 106229
L118640 106201
L118612 106145
L118612 106089
L118640 106032
L118668 106004
L118724 105976
L118865 105976
L118949 106004
" />
<path d="M119202 106567
L119202 105976
" />
<path d="M119455 106567
L119455 106257
L119427 106201
L119371 106173
L119287 106173
L119230 106201
L119202 106229
" />
<path d="M119961 106539
L119905 106567
L119793 106567
L119736 106539
L119708 106482
L119708 106257
L119736 106201
L119793 106173
L119905 106173
L119961 106201
L119990 106257
L119990 106314
L119708 106370
" />
<path d="M120468 106539
L120411 106567
L120299 106567
L120243 106539
L120215 106482
L120215 106257
L120243 106201
L120299 106173
L120411 106173
L120468 106201
L120496 106257
L120496 106314
L120215 106370
" />
<path d="M120664 106173
L120889 106173
" />
<path d="M120749 105976
L120749 106482
L120777 106539
L120833 106567
L120889 106567
" />
<path d="M121086 106510
L121114 106539
L121086 106567
L121058 106539
L121086 106510
L121086 106567
" />
<path d="M121086 106201
L121114 106229
L121086 106257
L121058 106229
L121086 106201
L121086 106257
" />
</g>
<g style="fill:#000000; fill-opacity:0.0; 
stroke:#000000; stroke-width:39.3701; stroke-opacity:1; 
stroke-linecap:round; stroke-linejoin:round;">
</g>
<g style="fill:#000000; fill-opacity:0.0; 
stroke:#000000; stroke-width:59.0551; stroke-opacity:1; 
stroke-linecap:round; stroke-linejoin:round;">
<path d="M125979 109646
L125979 110827
" />
</g>
<g style="fill:#000000; fill-opacity:0.0; 
stroke:#000000; stroke-width:39.3701; stroke-opacity:1; 
stroke-linecap:round; stroke-linejoin:round;">
</g>
<g style="fill:#000000; fill-opacity:0.0; 
stroke:#000000; stroke-width:59.0551; stroke-opacity:1; 
stroke-linecap:round; stroke-linejoin:round;">
<path d="M151176 109646
L151176 112205
" />
</g>
<g style="fill:#C1C100; fill-opacity:0.0; 
stroke:#C1C100; stroke-width:39.3701; stroke-opacity:1; 
stroke-linecap:round; stroke-linejoin:round;">
<path d="M35000 10000
L35000 73000
" />
<path d="M73000 10000
L35000 10000
" />
<path d="M73000 73000
L73000 10000
" />
<path d="M35000 73000
L73000 73000
" />
</g>
<g style="fill:#840000; fill-opacity:0.0; 
stroke:#840000; stroke-width:39.3701; stroke-opacity:1; 
stroke-linecap:round; stroke-linejoin:round;">
</g>
<g style="fill:#840000; fill-opacity:1.0; 
stroke:#840000; stroke-width:39.3701; stroke-opacity:1; 
stroke-linecap:round; stroke-linejoin:round;">
<circle cx="38000" cy="20000" r="310.315" /> 
<circle cx="39000" cy="20000" r="310.315" /> 
<circle cx="68000" cy="20000" r="310.315" /> 
<circle cx="69000" cy="20000" r="310.315" /> 
<circle cx="64000" cy="25000" r="310.315" /> 
<circle cx="63000" cy="25000" r="310.315" /> 
<circle cx="64000" cy="15000" r="310.315" /> 
<circle cx="63000" cy="15000" r="310.315" /> 
<circle cx="58000" cy="20000" r="310.315" /> 
<circle cx="59000" cy="20000" r="310.315" /> 
<circle cx="54000" cy="25000" r="310.315" /> 
<circle cx="53000" cy="25000" r="310.315" /> 
<circle cx="54000" cy="15000" r="310.315" /> 
<circle cx="53000" cy="15000" r="310.315" /> 
<circle cx="48000" cy="20000" r="310.315" /> 
<circle cx="49000" cy="20000" r="310.315" /> 
<circle cx="44000" cy="25000" r="310.315" /> 
<circle cx="43000" cy="25000" r="310.315" /> 
<circle cx="44000" cy="15000" r="310.315" /> 
<circle cx="43000" cy="15000" r="310.315" /> 
<circle cx="39000" cy="15000" r="310.315" /> 
<circle cx="38000" cy="15000" r="310.315" /> 
<circle cx="69000" cy="25000" r="310.315" /> 
<circle cx="68000" cy="25000" r="310.315" /> 
<circle cx="69000" cy="15000" r="310.315" /> 
<circle cx="68000" cy="15000" r="310.315" /> 
<circle cx="63000" cy="20000" r="310.315" /> 
<circle cx="64000" cy="20000" r="310.315" /> 
<circle cx="59000" cy="25000" r="310.315" /> 
<circle cx="58000" cy="25000" r="310.315" /> 
<circle cx="59000" cy="15000" r="310.315" /> 
<circle cx="58000" cy="15000" r="310.315" /> 
<circle cx="53000" cy="20000" r="310.315" /> 
<circle cx="54000" cy="20000" r="310.315" /> 
<circle cx="49000" cy="25000" r="310.315" /> 
<circle cx="48000" cy="25000" r="310.315" /> 
<circle cx="49000" cy="15000" r="310.315" /> 
<circle cx="48000" cy="15000" r="310.315" /> 
<circle cx="43000" cy="20000" r="310.315" /> 
<circle cx="44000" cy="20000" r="310.315" /> 
<circle cx="39000" cy="25000" r="310.315" /> 
<circle cx="38000" cy="25000" r="310.315" /> 
<circle cx="38000" cy="27000" r="255.315" /> 
<circle cx="41000" cy="27000" r="255.315" /> 
<circle cx="43000" cy="27000" r="255.315" /> 
<circle cx="46000" cy="27000" r="255.315" /> 
<circle cx="48000" cy="27000" r="255.315" /> 
<circle cx="51000" cy="27000" r="255.315" /> 
<circle cx="53000" cy="27000" r="255.315" /> 
<circle cx="56000" cy="27000" r="255.315" /> 
<circle cx="58000" cy="27000" r="255.315" /> 
<circle cx="61000" cy="27000" r="255.315" /> 
<circle cx="63000" cy="27000" r="255.315" /> 
<circle cx="66000" cy="27000" r="255.315" /> 
<circle cx="68000" cy="27000" r="255.315" /> 
<circle cx="71000" cy="27000" r="255.315" /> 
<polyline style="fill-rule:evenodd;"
points="41480,10019
41480,10980
40519,10980
40519,10019
41480,10019
" /> 
<circle cx="39000" cy="10500" r="480.315" /> 
<circle cx="58000" cy="57000" r="255.315" /> 
<circle cx="61000" cy="57000" r="255.315" /> 
<circle cx="53000" cy="57000" r="255.315" /> 
<circle cx="56000" cy="57000" r="255.315" /> 
<circle cx="48000" cy="72000" r="255.315" /> 
<circle cx="51000" cy="72000" r="255.315" /> 
<circle cx="58000" cy="42000" r="255.315" /> 
<circle cx="61000" cy="42000" r="255.315" /> 
<circle cx="48000" cy="57000" r="255.315" /> 
<circle cx="51000" cy="57000" r="255.315" /> 
<circle cx="43000" cy="72000" r="255.315" /> 
<circle cx="46000" cy="72000" r="255.315" /> 
<circle cx="53000" cy="72000" r="255.315" /> 
<circle cx="56000" cy="72000" r="255.315" /> 
<circle cx="63000" cy="42000" r="255.315" /> 
<circle cx="66000" cy="42000" r="255.315" /> 
<circle cx="38000" cy="72000" r="255.315" /> 
<circle cx="41000" cy="72000" r="255.315" /> 
<circle cx="68000" cy="42000" r="255.315" /> 
<circle cx="71000" cy="42000" r="255.315" /> 
<circle cx="43000" cy="57000" r="255.315" /> 
<circle cx="46000" cy="57000" r="255.315" /> 
<circle cx="38000" cy="42000" r="255.315" /> 
<circle cx="41000" cy="42000" r="255.315" /> 
<circle cx="68000" cy="72000" r="255.315" /> 
<circle cx="71000" cy="72000" r="255.315" /> 
<circle cx="38000" cy="57000" r="255.315" /> 
<circle cx="41000" cy="57000" r="255.315" /> 
<circle cx="53000" cy="42000" r="255.315" /> 
<circle cx="56000" cy="42000" r="255.315" /> 
<circle cx="43000" cy="42000" r="255.315" /> 
<circle cx="46000" cy="42000" r="255.315" /> 
<circle cx="63000" cy="72000" r="255.315" /> 
<circle cx="66000" cy="72000" r="255.315" /> 
<circle cx="58000" cy="72000" r="255.315" /> 
<circle cx="61000" cy="72000" r="255.315" /> 
<circle cx="68000" cy="57000" r="255.315" /> 
<circle cx="71000" cy="57000" r="255.315" /> 
<circle cx="48000" cy="42000" r="255.315" /> 
<circle cx="51000" cy="42000" r="255.315" /> 
<circle cx="63000" cy="57000" r="255.315" /> 
<circle cx="66000" cy="57000" r="255.315" /> 
<circle cx="64000" cy="55000" r="310.315" /> 
<circle cx="63000" cy="55000" r="310.315" /> 
<circle cx="59000" cy="70000" r="310.315" /> 
<circle cx="58000" cy="70000" r="310.315" /> 
<circle cx="49000" cy="60000" r="310.315" /> 
<circle cx="48000" cy="60000" r="310.315" /> 
<circle cx="54000" cy="70000" r="310.315" /> 
<circle cx="53000" cy="70000" r="310.315" /> 
<circle cx="58000" cy="50000" r="310.315" /> 
<circle cx="59000" cy="50000" r="310.315" /> 
<circle cx="53000" cy="65000" r="310.315" /> 
<circle cx="54000" cy="65000" r="310.315" /> 
<circle cx="54000" cy="60000" r="310.315" /> 
<circle cx="53000" cy="60000" r="310.315" /> 
<circle cx="59000" cy="45000" r="310.315" /> 
<circle cx="58000" cy="45000" r="310.315" /> 
<circle cx="59000" cy="55000" r="310.315" /> 
<circle cx="58000" cy="55000" r="310.315" /> 
<circle cx="63000" cy="50000" r="310.315" /> 
<circle cx="64000" cy="50000" r="310.315" /> 
<circle cx="69000" cy="60000" r="310.315" /> 
<circle cx="68000" cy="60000" r="310.315" /> 
<circle cx="54000" cy="30000" r="310.315" /> 
<circle cx="53000" cy="30000" r="310.315" /> 
<circle cx="58000" cy="65000" r="310.315" /> 
<circle cx="59000" cy="65000" r="310.315" /> 
<circle cx="59000" cy="60000" r="310.315" /> 
<circle cx="58000" cy="60000" r="310.315" /> 
<circle cx="64000" cy="70000" r="310.315" /> 
<circle cx="63000" cy="70000" r="310.315" /> 
<circle cx="63000" cy="65000" r="310.315" /> 
<circle cx="64000" cy="65000" r="310.315" /> 
<circle cx="64000" cy="60000" r="310.315" /> 
<circle cx="63000" cy="60000" r="310.315" /> 
<circle cx="69000" cy="70000" r="310.315" /> 
<circle cx="68000" cy="70000" r="310.315" /> 
<circle cx="68000" cy="65000" r="310.315" /> 
<circle cx="69000" cy="65000" r="310.315" /> 
<circle cx="48000" cy="65000" r="310.315" /> 
<circle cx="49000" cy="65000" r="310.315" /> 
<circle cx="39000" cy="70000" r="310.315" /> 
<circle cx="38000" cy="70000" r="310.315" /> 
<circle cx="38000" cy="65000" r="310.315" /> 
<circle cx="39000" cy="65000" r="310.315" /> 
<circle cx="39000" cy="60000" r="310.315" /> 
<circle cx="38000" cy="60000" r="310.315" /> 
<circle cx="44000" cy="70000" r="310.315" /> 
<circle cx="43000" cy="70000" r="310.315" /> 
<circle cx="43000" cy="65000" r="310.315" /> 
<circle cx="44000" cy="65000" r="310.315" /> 
<circle cx="44000" cy="60000" r="310.315" /> 
<circle cx="43000" cy="60000" r="310.315" /> 
<circle cx="49000" cy="70000" r="310.315" /> 
<circle cx="48000" cy="70000" r="310.315" /> 
<circle cx="39000" cy="30000" r="310.315" /> 
<circle cx="38000" cy="30000" r="310.315" /> 
<circle cx="64000" cy="40000" r="310.315" /> 
<circle cx="63000" cy="40000" r="310.315" /> 
<circle cx="63000" cy="35000" r="310.315" /> 
<circle cx="64000" cy="35000" r="310.315" /> 
<circle cx="64000" cy="30000" r="310.315" /> 
<circle cx="63000" cy="30000" r="310.315" /> 
<circle cx="69000" cy="40000" r="310.315" /> 
<circle cx="68000" cy="40000" r="310.315" /> 
<circle cx="68000" cy="35000" r="310.315" /> 
<circle cx="69000" cy="35000" r="310.315" /> 
<circle cx="69000" cy="30000" r="310.315" /> 
<circle cx="68000" cy="30000" r="310.315" /> 
<circle cx="39000" cy="40000" r="310.315" /> 
<circle cx="38000" cy="40000" r="310.315" /> 
<circle cx="38000" cy="35000" r="310.315" /> 
<circle cx="39000" cy="35000" r="310.315" /> 
<circle cx="59000" cy="30000" r="310.315" /> 
<circle cx="58000" cy="30000" r="310.315" /> 
<circle cx="44000" cy="40000" r="310.315" /> 
<circle cx="43000" cy="40000" r="310.315" /> 
<circle cx="43000" cy="35000" r="310.315" /> 
<circle cx="44000" cy="35000" r="310.315" /> 
<circle cx="44000" cy="30000" r="310.315" /> 
<circle cx="43000" cy="30000" r="310.315" /> 
<circle cx="49000" cy="40000" r="310.315" /> 
<circle cx="48000" cy="40000" r="310.315" /> 
<circle cx="48000" cy="35000" r="310.315" /> 
<circle cx="49000" cy="35000" r="310.315" /> 
<circle cx="49000" cy="30000" r="310.315" /> 
<circle cx="48000" cy="30000" r="310.315" /> 
<circle cx="54000" cy="40000" r="310.315" /> 
<circle cx="53000" cy="40000" r="310.315" /> 
<circle cx="53000" cy="35000" r="310.315" /> 
<circle cx="54000" cy="35000" r="310.315" /> 
<circle cx="44000" cy="45000" r="310.315" /> 
<circle cx="43000" cy="45000" r="310.315" /> 
<circle cx="69000" cy="55000" r="310.315" /> 
<circle cx="68000" cy="55000" r="310.315" /> 
<circle cx="68000" cy="50000" r="310.315" /> 
<circle cx="69000" cy="50000" r="310.315" /> 
<circle cx="69000" cy="45000" r="310.315" /> 
<circle cx="68000" cy="45000" r="310.315" /> 
<circle cx="39000" cy="55000" r="310.315" /> 
<circle cx="38000" cy="55000" r="310.315" /> 
<circle cx="38000" cy="50000" r="310.315" /> 
<circle cx="39000" cy="50000" r="310.315" /> 
<circle cx="39000" cy="45000" r="310.315" /> 
<circle cx="38000" cy="45000" r="310.315" /> 
<circle cx="44000" cy="55000" r="310.315" /> 
<circle cx="43000" cy="55000" r="310.315" /> 
<circle cx="43000" cy="50000" r="310.315" /> 
<circle cx="44000" cy="50000" r="310.315" /> 
<circle cx="64000" cy="45000" r="310.315" /> 
<circle cx="63000" cy="45000" r="310.315" /> 
<circle cx="49000" cy="55000" r="310.315" /> 
<circle cx="48000" cy="55000" r="310.315" /> 
<circle cx="48000" cy="50000" r="310.315" /> 
<circle cx="49000" cy="50000" r="310.315" /> 
<circle cx="49000" cy="45000" r="310.315" /> 
<circle cx="48000" cy="45000" r="310.315" /> 
<circle cx="54000" cy="55000" r="310.315" /> 
<circle cx="53000" cy="55000" r="310.315" /> 
<circle cx="53000" cy="50000" r="310.315" /> 
<circle cx="54000" cy="50000" r="310.315" /> 
<circle cx="54000" cy="45000" r="310.315" /> 
<circle cx="53000" cy="45000" r="310.315" /> 
<circle cx="59000" cy="40000" r="310.315" /> 
<circle cx="58000" cy="40000" r="310.315" /> 
<circle cx="58000" cy="35000" r="310.315" /> 
<circle cx="59000" cy="35000" r="310.315" /> 
</g>
<g style="fill:#C1C1C1; fill-opacity:1.0; 
stroke:#C1C1C1; stroke-width:39.3701; stroke-opacity:1; 
stroke-linecap:round; stroke-linejoin:round;">
<circle cx="64000" cy="17000" r="155.315" /> 
<circle cx="69000" cy="17000" r="155.315" /> 
<circle cx="59000" cy="17000" r="155.315" /> 
<circle cx="54000" cy="17000" r="155.315" /> 
<circle cx="49000" cy="17000" r="155.315" /> 
<circle cx="44000" cy="17000" r="155.315" /> 
<circle cx="39000" cy="17000" r="155.315" /> 
<circle cx="69000" cy="32000" r="155.315" /> 
<circle cx="64000" cy="32000" r="155.315" /> 
<circle cx="59000" cy="32000" r="155.315" /> 
<circle cx="54000" cy="32000" r="155.315" /> 
<circle cx="49000" cy="32000" r="155.315" /> 
<circle cx="44000" cy="32000" r="155.315" /> 
<circle cx="39000" cy="32000" r="155.315" /> 
<circle cx="36000" cy="17000" r="155.315" /> 
<circle cx="36000" cy="32000" r="155.315" /> 
<circle cx="39000" cy="47000" r="155.315" /> 
<circle cx="36000" cy="47000" r="155.315" /> 
<circle cx="44000" cy="47000" r="155.315" /> 
<circle cx="49000" cy="47000" r="155.315" /> 
<circle cx="54000" cy="47000" r="155.315" /> 
<circle cx="59000" cy="47000" r="155.315" /> 
<circle cx="64000" cy="47000" r="155.315" /> 
<circle cx="69000" cy="47000" r="155.315" /> 
<circle cx="39000" cy="62000" r="155.315" /> 
<circle cx="36000" cy="62000" r="155.315" /> 
<circle cx="44000" cy="62000" r="155.315" /> 
<circle cx="49000" cy="62000" r="155.315" /> 
<circle cx="54000" cy="62000" r="155.315" /> 
<circle cx="59000" cy="62000" r="155.315" /> 
<circle cx="64000" cy="62000" r="155.315" /> 
<circle cx="69000" cy="62000" r="155.315" /> 
<circle cx="72000" cy="32000" r="155.315" /> 
<circle cx="72000" cy="47000" r="155.315" /> 
<circle cx="72000" cy="62000" r="155.315" /> 
<circle cx="72000" cy="17000" r="155.315" /> 
<circle cx="46000" cy="28500" r="155.315" /> 
<circle cx="41000" cy="28500" r="155.315" /> 
<circle cx="46000" cy="28500" r="155.315" /> 
<circle cx="51000" cy="28500" r="155.315" /> 
<circle cx="56000" cy="28500" r="155.315" /> 
<circle cx="51000" cy="28500" r="155.315" /> 
<circle cx="61000" cy="28500" r="155.315" /> 
<circle cx="56000" cy="28500" r="155.315" /> 
<circle cx="66000" cy="28500" r="155.315" /> 
<circle cx="61000" cy="28500" r="155.315" /> 
<circle cx="71000" cy="28500" r="155.315" /> 
<circle cx="66000" cy="28500" r="155.315" /> 
</g>
<g style="fill:#008400; fill-opacity:1.0; 
stroke:#008400; stroke-width:100; stroke-opacity:1; 
stroke-linecap:round; stroke-linejoin:round;">
</g>
<g style="fill:#008400; fill-opacity:0.0; 
stroke:#008400; stroke-width:100; stroke-opacity:1; 
stroke-linecap:round; stroke-linejoin:round;">
<path d="M69000 17000
L69000 15000
" />
<path d="M64000 15000
L64000 17000
" />
<path d="M59000 15000
L59000 17000
" />
<path d="M54000 15000
L54000 17000
" />
<path d="M49000 15000
L49000 17000
" />
<path d="M44000 15000
L44000 17000
" />
<path d="M39000 15000
L39000 17000
" />
<path d="M39000 17000
L39000 10500
" />
<path d="M64000 32000
L64000 30000
" />
<path d="M69000 30000
L69000 32000
" />
<path d="M59000 32000
L59000 30000
" />
<path d="M54000 32000
L54000 30000
" />
<path d="M49000 32000
L49000 30000
" />
<path d="M44000 32000
L44000 30000
" />
<path d="M39000 32000
L39000 30000
" />
<path d="M36000 17000
L36000 17500
" />
<path d="M36000 17500
L36000 32000
" />
<path d="M36000 47000
L36000 32000
" />
<path d="M39000 45000
L39000 47000
" />
<path d="M44000 47000
L44000 45000
" />
<path d="M49000 47000
L49000 45000
" />
<path d="M54000 47000
L54000 45000
" />
<path d="M59000 47000
L59000 45000
" />
<path d="M64000 47000
L64000 45000
" />
<path d="M69000 47000
L69000 45000
" />
<path d="M36000 47000
L36000 62000
" />
<path d="M36000 62000
L36000 62000
" />
<path d="M39000 60000
L39000 62000
" />
<path d="M44000 62000
L44000 60000
" />
<path d="M49000 62000
L49000 60000
" />
<path d="M54000 62000
L54000 60000
" />
<path d="M59000 62000
L59000 60000
" />
<path d="M64000 62000
L64000 60000
" />
<path d="M69000 62000
L69000 60000
" />
<path d="M72000 32000
L72000 47000
" />
<path d="M72000 47000
L72000 62000
" />
<path d="M72000 32000
L72000 17000
" />
<path d="M41000 27000
L41000 28500
" />
<path d="M41000 28500
L41000 27000
" />
<path d="M46000 27000
L46000 28500
" />
<path d="M51000 28500
L51000 27000
" />
<path d="M46000 28500
L46000 28500
" />
<path d="M51000 28500
L51000 27000
" />
<path d="M56000 27000
L56000 28500
" />
<path d="M56000 28500
L56000 28500
" />
<path d="M61000 27000
L61000 28500
" />
<path d="M61000 28500
L61000 27000
" />
<path d="M66000 27000
L66000 28500
" />
<path d="M66000 28500
L66000 28500
" />
<path d="M71000 27000
L71000 28500
" />
<path d="M41000 27000
L41000 10500
" />
<path d="M71000 28500
L71000 42000
" />
<path d="M66000 28500
L66000 42000
" />
<path d="M61000 28500
L61000 42000
" />
<path d="M56000 28500
L56000 42000
" />
<path d="M51000 28500
L51000 42000
" />
<path d="M46000 28500
L46000 42000
" />
<path d="M41000 28500
L41000 42000
" />
<path d="M41000 42000
L41000 57000
" />
<path d="M46000 42000
L46000 57000
" />
<path d="M51000 42000
L51000 56500
" />
<path d="M56000 42000
L56000 57000
" />
<path d="M61000 42000
L61000 57000
" />
<path d="M66000 42000
L66000 57000
" />
<path d="M71000 42000
L71000 57000
" />
<path d="M41000 57000
L41000 72000
" />
<path d="M46000 57000
L46000 72000
" />
<path d="M51000 57000
L51000 72000
" />
<path d="M51000 56500
L51000 57000
" />
<path d="M56000 57000
L56000 72000
" />
<path d="M61000 57000
L61000 72000
" />
<path d="M66000 57000
L66000 72000
" />
<path d="M71000 57000
L71000 72000
" />
<path d="M43000 45000
L43000 50000
" />
<path d="M44000 50000
L44000 55000
" />
<path d="M64000 50000
L64000 55000
" />
<path d="M48000 55000
L48000 57000
" />
<path d="M49000 50000
L49000 55000
" />
<path d="M48000 45000
L48000 50000
" />
<path d="M53000 55000
L53000 57000
" />
<path d="M54000 50000
L54000 55000
" />
<path d="M53000 45000
L53000 50000
" />
<path d="M58000 55000
L58000 57000
" />
<path d="M59000 50000
L59000 55000
" />
<path d="M63000 45000
L63000 50000
" />
<path d="M58000 45000
L58000 50000
" />
<path d="M63000 55000
L63000 57000
" />
<path d="M53000 60000
L53000 65000
" />
<path d="M38000 60000
L38000 65000
" />
<path d="M58000 60000
L58000 65000
" />
<path d="M63000 70000
L63000 72000
" />
<path d="M64000 65000
L64000 70000
" />
<path d="M63000 60000
L63000 65000
" />
<path d="M68000 70000
L68000 72000
" />
<path d="M69000 65000
L69000 70000
" />
<path d="M68000 55000
L68000 57000
" />
<path d="M68000 60000
L68000 65000
" />
<path d="M38000 70000
L38000 72000
" />
<path d="M39000 65000
L39000 70000
" />
<path d="M59000 65000
L59000 70000
" />
<path d="M43000 70000
L43000 72000
" />
<path d="M44000 65000
L44000 70000
" />
<path d="M43000 60000
L43000 65000
" />
<path d="M48000 70000
L48000 72000
" />
<path d="M49000 65000
L49000 70000
" />
<path d="M48000 60000
L48000 65000
" />
<path d="M69000 50000
L69000 55000
" />
<path d="M53000 70000
L53000 72000
" />
<path d="M54000 65000
L54000 70000
" />
<path d="M58000 70000
L58000 72000
" />
<path d="M68000 15000
L68000 20000
" />
<path d="M38000 25000
L38000 27000
" />
<path d="M39000 20000
L39000 25000
" />
<path d="M38000 15000
L38000 20000
" />
<path d="M43000 25000
L43000 27000
" />
<path d="M44000 20000
L44000 25000
" />
<path d="M68000 45000
L68000 50000
" />
<path d="M43000 15000
L43000 20000
" />
<path d="M48000 25000
L48000 27000
" />
<path d="M49000 20000
L49000 25000
" />
<path d="M48000 15000
L48000 20000
" />
<path d="M53000 25000
L53000 27000
" />
<path d="M54000 20000
L54000 25000
" />
<path d="M53000 15000
L53000 20000
" />
<path d="M58000 25000
L58000 27000
" />
<path d="M59000 20000
L59000 25000
" />
<path d="M58000 15000
L58000 20000
" />
<path d="M38000 55000
L38000 57000
" />
<path d="M63000 25000
L63000 27000
" />
<path d="M64000 20000
L64000 25000
" />
<path d="M63000 15000
L63000 20000
" />
<path d="M68000 25000
L68000 27000
" />
<path d="M69000 20000
L69000 25000
" />
<path d="M48000 30000
L48000 35000
" />
<path d="M68000 30000
L68000 35000
" />
<path d="M38000 40000
L38000 42000
" />
<path d="M39000 35000
L39000 40000
" />
<path d="M38000 30000
L38000 35000
" />
<path d="M39000 50000
L39000 55000
" />
<path d="M43000 40000
L43000 42000
" />
<path d="M44000 35000
L44000 40000
" />
<path d="M43000 30000
L43000 35000
" />
<path d="M48000 40000
L48000 42000
" />
<path d="M49000 35000
L49000 40000
" />
<path d="M69000 35000
L69000 40000
" />
<path d="M53000 40000
L53000 42000
" />
<path d="M54000 35000
L54000 40000
" />
<path d="M53000 30000
L53000 35000
" />
<path d="M58000 40000
L58000 42000
" />
<path d="M38000 45000
L38000 50000
" />
<path d="M59000 35000
L59000 40000
" />
<path d="M58000 30000
L58000 35000
" />
<path d="M63000 40000
L63000 42000
" />
<path d="M64000 35000
L64000 40000
" />
<path d="M63000 30000
L63000 35000
" />
<path d="M68000 40000
L68000 42000
" />
<path d="M43000 55000
L43000 57000
" />
</g>
<g style="fill:#FFFFFF; fill-opacity:0.0; 
stroke:#FFFFFF; stroke-width:39.3701; stroke-opacity:1; 
stroke-linecap:round; stroke-linejoin:round;">
</g>
<g style="fill:#FFFFFF; fill-opacity:1.0; 
stroke:#FFFFFF; stroke-width:39.3701; stroke-opacity:1; 
stroke-linecap:round; stroke-linejoin:round;">
<circle cx="64000" cy="17000" r="105.315" /> 
<circle cx="69000" cy="17000" r="105.315" /> 
<circle cx="59000" cy="17000" r="105.315" /> 
<circle cx="54000" cy="17000" r="105.315" /> 
<circle cx="49000" cy="17000" r="105.315" /> 
<circle cx="44000" cy="17000" r="105.315" /> 
<circle cx="39000" cy="17000" r="105.315" /> 
<circle cx="69000" cy="32000" r="105.315" /> 
<circle cx="64000" cy="32000" r="105.315" /> 
<circle cx="59000" cy="32000" r="105.315" /> 
<circle cx="54000" cy="32000" r="105.315" /> 
<circle cx="49000" cy="32000" r="105.315" /> 
<circle cx="44000" cy="32000" r="105.315" /> 
<circle cx="39000" cy="32000" r="105.315" /> 
<circle cx="36000" cy="17000" r="105.315" /> 
<circle cx="36000" cy="32000" r="105.315" /> 
<circle cx="39000" cy="47000" r="105.315" /> 
<circle cx="36000" cy="47000" r="105.315" /> 
<circle cx="44000" cy="47000" r="105.315" /> 
<circle cx="49000" cy="47000" r="105.315" /> 
<circle cx="54000" cy="47000" r="105.315" /> 
<circle cx="59000" cy="47000" r="105.315" /> 
<circle cx="64000" cy="47000" r="105.315" /> 
<circle cx="69000" cy="47000" r="105.315" /> 
<circle cx="39000" cy="62000" r="105.315" /> 
<circle cx="36000" cy="62000" r="105.315" /> 
<circle cx="44000" cy="62000" r="105.315" /> 
<circle cx="49000" cy="62000" r="105.315" /> 
<circle cx="54000" cy="62000" r="105.315" /> 
<circle cx="59000" cy="62000" r="105.315" /> 
<circle cx="64000" cy="62000" r="105.315" /> 
<circle cx="69000" cy="62000" r="105.315" /> 
<circle cx="72000" cy="32000" r="105.315" /> 
<circle cx="72000" cy="47000" r="105.315" /> 
<circle cx="72000" cy="62000" r="105.315" /> 
<circle cx="72000" cy="17000" r="105.315" /> 
<circle cx="46000" cy="28500" r="105.315" /> 
<circle cx="41000" cy="28500" r="105.315" /> 
<circle cx="46000" cy="28500" r="105.315" /> 
<circle cx="51000" cy="28500" r="105.315" /> 
<circle cx="56000" cy="28500" r="105.315" /> 
<circle cx="51000" cy="28500" r="105.315" /> 
<circle cx="61000" cy="28500" r="105.315" /> 
<circle cx="56000" cy="28500" r="105.315" /> 
<circle cx="66000" cy="28500" r="105.315" /> 
<circle cx="61000" cy="28500" r="105.315" /> 
<circle cx="71000" cy="28500" r="105.315" /> 
<circle cx="66000" cy="28500" r="105.315" /> 
<circle cx="38000" cy="20000" r="140.315" /> 
<circle cx="39000" cy="20000" r="140.315" /> 
<circle cx="68000" cy="20000" r="140.315" /> 
<circle cx="69000" cy="20000" r="140.315" /> 
<circle cx="64000" cy="25000" r="140.315" /> 
<circle cx="63000" cy="25000" r="140.315" /> 
<circle cx="64000" cy="15000" r="140.315" /> 
<circle cx="63000" cy="15000" r="140.315" /> 
<circle cx="58000" cy="20000" r="140.315" /> 
<circle cx="59000" cy="20000" r="140.315" /> 
<circle cx="54000" cy="25000" r="140.315" /> 
<circle cx="53000" cy="25000" r="140.315" /> 
<circle cx="54000" cy="15000" r="140.315" /> 
<circle cx="53000" cy="15000" r="140.315" /> 
<circle cx="48000" cy="20000" r="140.315" /> 
<circle cx="49000" cy="20000" r="140.315" /> 
<circle cx="44000" cy="25000" r="140.315" /> 
<circle cx="43000" cy="25000" r="140.315" /> 
<circle cx="44000" cy="15000" r="140.315" /> 
<circle cx="43000" cy="15000" r="140.315" /> 
<circle cx="39000" cy="15000" r="140.315" /> 
<circle cx="38000" cy="15000" r="140.315" /> 
<circle cx="69000" cy="25000" r="140.315" /> 
<circle cx="68000" cy="25000" r="140.315" /> 
<circle cx="69000" cy="15000" r="140.315" /> 
<circle cx="68000" cy="15000" r="140.315" /> 
<circle cx="63000" cy="20000" r="140.315" /> 
<circle cx="64000" cy="20000" r="140.315" /> 
<circle cx="59000" cy="25000" r="140.315" /> 
<circle cx="58000" cy="25000" r="140.315" /> 
<circle cx="59000" cy="15000" r="140.315" /> 
<circle cx="58000" cy="15000" r="140.315" /> 
<circle cx="53000" cy="20000" r="140.315" /> 
<circle cx="54000" cy="20000" r="140.315" /> 
<circle cx="49000" cy="25000" r="140.315" /> 
<circle cx="48000" cy="25000" r="140.315" /> 
<circle cx="49000" cy="15000" r="140.315" /> 
<circle cx="48000" cy="15000" r="140.315" /> 
<circle cx="43000" cy="20000" r="140.315" /> 
<circle cx="44000" cy="20000" r="140.315" /> 
<circle cx="39000" cy="25000" r="140.315" /> 
<circle cx="38000" cy="25000" r="140.315" /> 
<circle cx="38000" cy="27000" r="140.315" /> 
<circle cx="41000" cy="27000" r="140.315" /> 
<circle cx="43000" cy="27000" r="140.315" /> 
<circle cx="46000" cy="27000" r="140.315" /> 
<circle cx="48000" cy="27000" r="140.315" /> 
<circle cx="51000" cy="27000" r="140.315" /> 
<circle cx="53000" cy="27000" r="140.315" /> 
<circle cx="56000" cy="27000" r="140.315" /> 
<circle cx="58000" cy="27000" r="140.315" /> 
<circle cx="61000" cy="27000" r="140.315" /> 
<circle cx="63000" cy="27000" r="140.315" /> 
<circle cx="66000" cy="27000" r="140.315" /> 
<circle cx="68000" cy="27000" r="140.315" /> 
<circle cx="71000" cy="27000" r="140.315" /> 
<circle cx="41000" cy="10500" r="280.315" /> 
<circle cx="39000" cy="10500" r="280.315" /> 
<circle cx="58000" cy="57000" r="140.315" /> 
<circle cx="61000" cy="57000" r="140.315" /> 
<circle cx="53000" cy="57000" r="140.315" /> 
<circle cx="56000" cy="57000" r="140.315" /> 
<circle cx="48000" cy="72000" r="140.315" /> 
<circle cx="51000" cy="72000" r="140.315" /> 
<circle cx="58000" cy="42000" r="140.315" /> 
<circle cx="61000" cy="42000" r="140.315" /> 
<circle cx="48000" cy="57000" r="140.315" /> 
<circle cx="51000" cy="57000" r="140.315" /> 
<circle cx="43000" cy="72000" r="140.315" /> 
<circle cx="46000" cy="72000" r="140.315" /> 
<circle cx="53000" cy="72000" r="140.315" /> 
<circle cx="56000" cy="72000" r="140.315" /> 
<circle cx="63000" cy="42000" r="140.315" /> 
<circle cx="66000" cy="42000" r="140.315" /> 
<circle cx="38000" cy="72000" r="140.315" /> 
<circle cx="41000" cy="72000" r="140.315" /> 
<circle cx="68000" cy="42000" r="140.315" /> 
<circle cx="71000" cy="42000" r="140.315" /> 
<circle cx="43000" cy="57000" r="140.315" /> 
<circle cx="46000" cy="57000" r="140.315" /> 
<circle cx="38000" cy="42000" r="140.315" /> 
<circle cx="41000" cy="42000" r="140.315" /> 
<circle cx="68000" cy="72000" r="140.315" /> 
<circle cx="71000" cy="72000" r="140.315" /> 
<circle cx="38000" cy="57000" r="140.315" /> 
<circle cx="41000" cy="57000" r="140.315" /> 
<circle cx="53000" cy="42000" r="140.315" /> 
<circle cx="56000" cy="42000" r="140.315" /> 
<circle cx="43000" cy="42000" r="140.315" /> 
<circle cx="46000" cy="42000" r="140.315" /> 
<circle cx="63000" cy="72000" r="140.315" /> 
<circle cx="66000" cy="72000" r="140.315" /> 
<circle cx="58000" cy="72000" r="140.315" /> 
<circle cx="61000" cy="72000" r="140.315" /> 
<circle cx="68000" cy="57000" r="140.315" /> 
<circle cx="71000" cy="57000" r="140.315" /> 
<circle cx="48000" cy="42000" r="140.315" /> 
<circle cx="51000" cy="42000" r="140.315" /> 
<circle cx="63000" cy="57000" r="140.315" /> 
<circle cx="66000" cy="57000" r="140.315" /> 
<circle cx="64000" cy="55000" r="140.315" /> 
<circle cx="63000" cy="55000" r="140.315" /> 
<circle cx="59000" cy="70000" r="140.315" /> 
<circle cx="58000" cy="70000" r="140.315" /> 
<circle cx="49000" cy="60000" r="140.315" /> 
<circle cx="48000" cy="60000" r="140.315" /> 
<circle cx="54000" cy="70000" r="140.315" /> 
<circle cx="53000" cy="70000" r="140.315" /> 
<circle cx="58000" cy="50000" r="140.315" /> 
<circle cx="59000" cy="50000" r="140.315" /> 
<circle cx="53000" cy="65000" r="140.315" /> 
<circle cx="54000" cy="65000" r="140.315" /> 
<circle cx="54000" cy="60000" r="140.315" /> 
<circle cx="53000" cy="60000" r="140.315" /> 
<circle cx="59000" cy="45000" r="140.315" /> 
<circle cx="58000" cy="45000" r="140.315" /> 
<circle cx="59000" cy="55000" r="140.315" /> 
<circle cx="58000" cy="55000" r="140.315" /> 
<circle cx="63000" cy="50000" r="140.315" /> 
<circle cx="64000" cy="50000" r="140.315" /> 
<circle cx="69000" cy="60000" r="140.315" /> 
<circle cx="68000" cy="60000" r="140.315" /> 
<circle cx="54000" cy="30000" r="140.315" /> 
<circle cx="53000" cy="30000" r="140.315" /> 
<circle cx="58000" cy="65000" r="140.315" /> 
<circle cx="59000" cy="65000" r="140.315" /> 
<circle cx="59000" cy="60000" r="140.315" /> 
<circle cx="58000" cy="60000" r="140.315" /> 
<circle cx="64000" cy="70000" r="140.315" /> 
<circle cx="63000" cy="70000" r="140.315" /> 
<circle cx="63000" cy="65000" r="140.315" /> 
<circle cx="64000" cy="65000" r="140.315" /> 
<circle cx="64000" cy="60000" r="140.315" /> 
<circle cx="63000" cy="60000" r="140.315" /> 
<circle cx="69000" cy="70000" r="140.315" /> 
<circle cx="68000" cy="70000" r="140.315" /> 
<circle cx="68000" cy="65000" r="140.315" /> 
<circle cx="69000" cy="65000" r="140.315" /> 
<circle cx="48000" cy="65000" r="140.315" /> 
<circle cx="49000" cy="65000" r="140.315" /> 
<circle cx="39000" cy="70000" r="140.315" /> 
<circle cx="38000" cy="70000" r="140.315" /> 
<circle cx="38000" cy="65000" r="140.315" /> 
<circle cx="39000" cy="65000" r="140.315" /> 
<circle cx="39000" cy="60000" r="140.315" /> 
<circle cx="38000" cy="60000" r="140.315" /> 
<circle cx="44000" cy="70000" r="140.315" /> 
<circle cx="43000" cy="70000" r="140.315" /> 
<circle cx="43000" cy="65000" r="140.315" /> 
<circle cx="44000" cy="65000" r="140.315" /> 
<circle cx="44000" cy="60000" r="140.315" /> 
<circle cx="43000" cy="60000" r="140.315" /> 
<circle cx="49000" cy="70000" r="140.315" /> 
<circle cx="48000" cy="70000" r="140.315" /> 
<circle cx="39000" cy="30000" r="140.315" /> 
<circle cx="38000" cy="30000" r="140.315" /> 
<circle cx="64000" cy="40000" r="140.315" /> 
<circle cx="63000" cy="40000" r="140.315" /> 
<circle cx="63000" cy="35000" r="140.315" /> 
<circle cx="64000" cy="35000" r="140.315" /> 
<circle cx="64000" cy="30000" r="140.315" /> 
<circle cx="63000" cy="30000" r="140.315" /> 
<circle cx="69000" cy="40000" r="140.315" /> 
<circle cx="68000" cy="40000" r="140.315" /> 
<circle cx="68000" cy="35000" r="140.315" /> 
<circle cx="69000" cy="35000" r="140.315" /> 
<circle cx="69000" cy="30000" r="140.315" /> 
<circle cx="68000" cy="30000" r="140.315" /> 
<circle cx="39000" cy="40000" r="140.315" /> 
<circle cx="38000" cy="40000" r="140.315" /> 
<circle cx="38000" cy="35000" r="140.315" /> 
<circle cx="39000" cy="35000" r="140.315" /> 
<circle cx="59000" cy="30000" r="140.315" /> 
<circle cx="58000" cy="30000" r="140.315" /> 
<circle cx="44000" cy="40000" r="140.315" /> 
<circle cx="43000" cy="40000" r="140.315" /> 
<circle cx="43000" cy="35000" r="140.315" /> 
<circle cx="44000" cy="35000" r="140.315" /> 
<circle cx="44000" cy="30000" r="140.315" /> 
<circle cx="43000" cy="30000" r="140.315" /> 
<circle cx="49000" cy="40000" r="140.315" /> 
<circle cx="48000" cy="40000" r="140.315" /> 
<circle cx="48000" cy="35000" r="140.315" /> 
<circle cx="49000" cy="35000" r="140.315" /> 
<circle cx="49000" cy="30000" r="140.315" /> 
<circle cx="48000" cy="30000" r="140.315" /> 
<circle cx="54000" cy="40000" r="140.315" /> 
<circle cx="53000" cy="40000" r="140.315" /> 
<circle cx="53000" cy="35000" r="140.315" /> 
<circle cx="54000" cy="35000" r="140.315" /> 
<circle cx="44000" cy="45000" r="140.315" /> 
<circle cx="43000" cy="45000" r="140.315" /> 
<circle cx="69000" cy="55000" r="140.315" /> 
<circle cx="68000" cy="55000" r="140.315" /> 
<circle cx="68000" cy="50000" r="140.315" /> 
<circle cx="69000" cy="50000" r="140.315" /> 
<circle cx="69000" cy="45000" r="140.315" /> 
<circle cx="68000" cy="45000" r="140.315" /> 
<circle cx="39000" cy="55000" r="140.315" /> 
<circle cx="38000" cy="55000" r="140.315" /> 
<circle cx="38000" cy="50000" r="140.315" /> 
<circle cx="39000" cy="50000" r="140.315" /> 
<circle cx="39000" cy="45000" r="140.315" /> 
<circle cx="38000" cy="45000" r="140.315" /> 
<circle cx="44000" cy="55000" r="140.315" /> 
<circle cx="43000" cy="55000" r="140.315" /> 
<circle cx="43000" cy="50000" r="140.315" /> 
<circle cx="44000" cy="50000" r="140.315" /> 
<circle cx="64000" cy="45000" r="140.315" /> 
<circle cx="63000" cy="45000" r="140.315" /> 
<circle cx="49000" cy="55000" r="140.315" /> 
<circle cx="48000" cy="55000" r="140.315" /> 
<circle cx="48000" cy="50000" r="140.315" /> 
<circle cx="49000" cy="50000" r="140.315" /> 
<circle cx="49000" cy="45000" r="140.315" /> 
<circle cx="48000" cy="45000" r="140.315" /> 
<circle cx="54000" cy="55000" r="140.315" /> 
<circle cx="53000" cy="55000" r="140.315" /> 
<circle cx="53000" cy="50000" r="140.315" /> 
<circle cx="54000" cy="50000" r="140.315" /> 
<circle cx="54000" cy="45000" r="140.315" /> 
<circle cx="53000" cy="45000" r="140.315" /> 
<circle cx="59000" cy="40000" r="140.315" /> 
<circle cx="58000" cy="40000" r="140.315" /> 
<circle cx="58000" cy="35000" r="140.315" /> 
<circle cx="59000" cy="35000" r="140.315" /> 
</g> 
</svg>
